<svg xmlns="http://www.w3.org/2000/svg" width="256" height="256"><path fill-opacity=".016" d="M0 128.004v128.004l128.25-.254 128.25-.254.254-127.75L257.008 0H0v128.004m.485.496c0 70.4.119 99.053.265 63.672.146-35.38.146-92.98 0-128C.604 29.153.485 58.1.485 128.5" fill="#fff" fill-rule="evenodd"/><path fill-opacity=".271" d="M126.007 20.492c-.681.82-2.264 5.658-3.518 10.75-9.153 37.166-24.456 68.766-44.918 92.758-3.049 3.575-5.55 6.838-5.557 7.25-.008.412 10.136.75 22.541.75h22.555l7.195-3.106c8.171-3.528 23.446-8.894 25.315-8.894.684 0 2.729 2.7 4.543 6l3.299 6h14.269c8.857 0 14.269-.38 14.269-1.001 0-.551-2.249-4.462-4.999-8.692-5.374-8.269-5.3-9.263.69-9.292 1.755-.008 3.391-.353 3.635-.765.244-.413-2.331-5.7-5.723-11.75l-6.167-11-4.512.278-4.512.279-2.15-6.779c-4.078-12.859-7.865-32.375-10.339-53.278-.618-5.225-1.33-9.837-1.583-10.25-.252-.413-5.551-.75-11.777-.75-8.813 0-11.592.33-12.556 1.492m4.124 69.758c-2.289 5.088-4.154 9.757-4.146 10.376.009.706 2.525.215 6.751-1.319 3.704-1.345 6.885-2.595 7.068-2.777.326-.327-4.85-15.53-5.288-15.53-.123 0-2.096 4.162-4.385 9.25m-110.104 58.7c-4.093 7.648-15.863 36.614-15.162 37.315.475.475 2.836.722 5.247.549 3.968-.284 4.551-.67 6.144-4.064l1.76-3.75H33.835l1.833 3.75c1.69 3.459 2.201 3.774 6.582 4.055 5.936.381 6.024-.37 1.399-11.929a1801.483 1801.483 0 0 1-7.103-18.126L32.793 147h-5.861c-4.788 0-6.053.357-6.905 1.95m42.202 17.747L62.5 186.5l12.359.282C87.98 187.081 90 186.52 90 182.578c0-3.657-1.947-4.578-9.674-4.578h-7.274l-.276-15.25-.276-15.25-5.271-.303-5.272-.303.272 19.803m43.438-19.03c-.367.366-.667 8.861-.667 18.877 0 20.391.138 20.809 6.68 20.271l3.82-.315.292-7.75.292-7.75h5.057c9.274 0 14.878-4.606 14.844-12.2-.039-8.751-5.09-11.796-19.568-11.798-5.546-.001-10.384.298-10.75.665m47.562 19.03.271 19.803 3.82.315c5.641.464 6.68-.925 6.68-8.937V171h16l.015 6.75c.02 8.621.582 9.459 6.084 9.065l4.401-.315v-39h-10l-.5 7.392-.5 7.392-7.713.108-7.713.108-.287-7.5-.287-7.5-5.271-.303-5.272-.303.272 19.803m66.766-15.184c-4.588 10.701-8.396 19.381-11.106 25.307-1.589 3.476-2.889 7.213-2.889 8.305 0 1.744.576 1.948 4.75 1.68 4.381-.281 4.892-.596 6.582-4.055l1.833-3.75H234.984l1.76 3.75c1.593 3.394 2.176 3.78 6.144 4.064 2.411.173 4.783-.085 5.271-.573.516-.516-1.653-7.336-5.191-16.314-3.343-8.485-6.676-17.002-7.408-18.927-1.298-3.419-1.47-3.507-7.459-3.798l-6.131-.298-1.975 4.609M116 159v4.121l3.649-.311c7.143-.607 7.143-7.013 0-7.62l-3.649-.311V159m-90.853 2.111c-.5 1.314-1.599 4.04-2.443 6.057-.844 2.018-1.272 3.931-.952 4.25.902.903 8.066.685 8.652-.263.454-.734-2.921-10.987-3.964-12.044-.211-.213-.793.687-1.293 2m199.96 3.333c-1.159 3.097-2.107 6.064-2.107 6.594 0 .529 2.025.962 4.5.962s4.5-.37 4.5-.822c0-1.405-3.225-10.632-4.026-11.521-.418-.464-1.709 1.69-2.867 4.787M4.766 197.706c-4.246 4.692-3.997 12.618.495 15.765 2.7 1.89 8.729 1.988 11.201.181 2.841-2.078 1.006-3.75-3.351-3.054C8.745 211.296 6 209.328 6 205.5c0-3.816 2.758-5.796 7.237-5.195 3.534.474 3.852.328 3.571-1.642-.263-1.844-1.054-2.207-5.362-2.458-3.856-.226-5.439.13-6.68 1.501m23.686.94c-3.398 3.667-3.398 10.041 0 13.708 2.847 3.072 8.713 3.619 12.249 1.143 4.662-3.265 4.941-10.92.574-15.745-2.593-2.866-9.804-2.363-12.823.894m24.972-1.308c-.283.737-.381 4.899-.219 9.25.266 7.147.488 7.912 2.295 7.912 1.683 0 2.079-.833 2.5-5.251l.5-5.252 4.295 5.566c6.265 8.119 7.629 7.369 7.994-4.399.285-9.202.261-9.309-2-8.989-1.939.275-2.366 1.064-2.789 5.149l-.5 4.824-3.858-5.074c-3.799-4.997-7.15-6.52-8.218-3.736m27.576.661c-1.78 3.327-.783 6.242 3 8.777 5.062 3.391 5.106 4.656.133 3.861-3.079-.492-4.133-.326-4.133.651 0 2.318 2.302 3.712 6.129 3.712 8.581 0 9.42-8.94 1.135-12.09-3.472-1.32-2.304-3.483 1.66-3.075 2.707.278 3.197.026 2.907-1.5-.269-1.413-1.425-1.905-5.027-2.137-3.908-.253-4.863.044-5.804 1.801m21 5.257c0 6.437.3 7.677 2.314 9.57 3.025 2.841 8.931 2.929 11.686.174 1.644-1.644 2-3.333 2-9.5 0-6.833-.178-7.5-2-7.5-1.791 0-2 .667-2 6.378 0 6.748-1.305 9.091-4.702 8.445-1.466-.278-1.89-1.631-2.298-7.332-.451-6.31-.719-7.022-2.75-7.311-2.159-.306-2.25-.021-2.25 7.076m26.211 1.919.289 9.325h5.5c4.222 0 5.5-.348 5.5-1.5 0-.957-1.161-1.612-3.207-1.81l-3.208-.31-.292-7.19c-.27-6.629-.472-7.215-2.582-7.515-2.261-.32-2.285-.214-2 9m17.22-8.063c-.791 1.279 1.274 2.85 3.775 2.873 1.423.012 1.755 1.22 2 7.265.263 6.485.505 7.25 2.294 7.25 1.787 0 2.031-.764 2.293-7.186.265-6.533.492-7.215 2.489-7.5 1.209-.173 2.348-1.101 2.531-2.064.294-1.541-.564-1.75-7.181-1.75-4.434 0-7.796.456-8.201 1.112m27.798-.443c-1.818.732-4.229 5.776-4.229 8.847 0 5.601 3.631 9.404 9.027 9.452 8.932.081 12.645-10.149 6.248-17.216-1.53-1.692-7.965-2.322-11.046-1.083M197 205.573c0 8.577.182 9.539 1.75 9.242 1.153-.218 1.857-1.438 2.063-3.573.41-4.24 2.395-4.125 4.486.258 1.092 2.291 2.365 3.5 3.685 3.5 2.416 0 2.495-.917.493-5.709-1.038-2.485-1.197-3.971-.5-4.668 1.527-1.527 1.236-5.268-.548-7.052-1.004-1.003-3.353-1.571-6.5-1.571H197v9.573m23-.073c0 8.637.171 9.5 1.883 9.5 2.158 0 3.083-2.572 3.103-8.625.023-6.908-1.016-10.375-3.111-10.375-1.702 0-1.875.878-1.875 9.5m16.172-1.15c-1.745 4.593-3.172 8.868-3.172 9.5 0 1.696 3.69 1.4 4.362-.35.376-.981 1.934-1.5 4.5-1.5 2.565 0 4.123.519 4.5 1.5.622 1.623 3.191 2.032 4.049.645.29-.471-.873-4.746-2.586-9.5-2.859-7.939-3.332-8.645-5.797-8.645-2.445 0-2.967.745-5.856 8.35m-34.798-3.881c-.303.789-.272 1.887.069 2.439.818 1.323 3.557.238 3.557-1.408 0-1.879-2.976-2.725-3.626-1.031m-169.931 1.978c-3.428 5.232 3.388 11.488 6.96 6.387 2.089-2.981 2.019-5.142-.232-7.179-2.572-2.328-4.86-2.059-6.728.792M175.2 201.2c-1.681 1.681-1.497 7.308.287 8.789 2.281 1.893 6.374.412 7.125-2.578 1.372-5.469-3.811-9.812-7.412-6.211m65.456 4.006c-.685 2.622-.257 3.239 1.723 2.479.911-.35 1.262-1.343.927-2.624-.704-2.693-1.925-2.626-2.65.145M2.357 228.513c-.32.832.003 2.216.717 3.076 1.06 1.277 1.061 1.71.005 2.362-1.695 1.048.399 2.463 2.469 1.669 1.665-.639 1.996-4.62.385-4.62-.613 0-.797-.853-.433-2 .767-2.416-2.225-2.88-3.143-.487M9.2 228.2c-1.31 1.31-1.542 3.744-.593 6.218.674 1.756 3.928 2.143 4.893.582.34-.55-.084-1-.941-1S11 233.55 11 233s.338-1 .75-1.001c.412 0 .815-1.125.894-2.5.154-2.663-1.468-3.275-3.444-1.299m7.371.371c-.864.865-1.571 2.183-1.571 2.929 0 1.728 2.74 4.5 4.449 4.5 1.788 0 3.87-2.675 3.078-3.956-1.02-1.65-3.544-1.251-2.889.456.317.825.126 1.5-.424 1.5-2.008 0-2.14-3.029-.186-4.25 1.085-.677 1.972-1.573 1.972-1.991 0-1.33-2.8-.816-4.429.812m16.056-.042c-1.121 2.922-.688 6.471.79 6.471.779 0 1.643-.562 1.921-1.25.403-1 .52-1 .583 0 .043.688.556 1.25 1.139 1.25.614 0 .93-1.579.75-3.75-.243-2.939-.769-3.816-2.433-4.053-1.252-.179-2.38.368-2.75 1.332m9.05-.779c-.243.412-.739 2.137-1.102 3.833-.624 2.914-.493 3.084 2.382 3.084 3.269 0 3.65-.941 2.068-5.102-.952-2.503-2.462-3.321-3.348-1.815m7.046-.139c-1.084 1.084-.87 7.18.277 7.889.55.34 1-.153 1-1.096 0-1.598.124-1.602 1.831-.057 2.295 2.077 3.169 1.245 3.169-3.014 0-3.279-1.384-4.531-2.302-2.083-.333.888-.872.727-1.861-.556-.765-.993-1.717-1.481-2.114-1.083m8.848.96c-.864.865-1.571 2.37-1.571 3.345 0 1.949 2.978 5.084 4.829 5.084 1.7 0 1.438-2.684-.329-3.362-.825-.316-1.5-1.278-1.5-2.138 0-.86.675-1.822 1.5-2.138.825-.317 1.5-.978 1.5-1.469 0-1.442-2.725-1.025-4.429.678m7.942 2.051c-.832 1.992-1.513 3.702-1.513 3.8 0 .098 1.575.178 3.5.178s3.5-.382 3.5-.85c0-1.129-2.925-6.75-3.512-6.75-.254 0-1.142 1.63-1.975 3.622M75 231c0 3.855 1.271 5.337 2.359 2.75.374-.892.846-.743 1.644.521 1.593 2.52 2.997 1.194 2.997-2.83 0-3.401-1.227-4.501-2.579-2.313-.477.772-.986.614-1.609-.5C76.234 225.809 75 226.85 75 231m9.571-2.429c-1.842 1.843-1.942 2.867-.536 5.495 1.93 3.606 6.965 1.751 6.965-2.566 0-4.114-3.602-5.755-6.429-2.929m11.016 2.179c.373 2.063.844 3.938 1.046 4.167.64.726 1.082-.311 1.78-4.167.606-3.354.457-3.75-1.413-3.75s-2.019.396-1.413 3.75m6.08-3.083c-.947.946-.83 7.333.133 7.333.44 0 1.34-.54 2-1.2.933-.933 1.2-.933 1.2 0 0 .66.42 1.2.933 1.2 1.306 0 1.018-6.339-.328-7.235-1.389-.923-3.071-.965-3.938-.098m8.279 2.083a332.945 332.945 0 0 0-1.368 3.8c-.206.598 1.098 1.05 3.03 1.05 3.865 0 3.791.145 2.191-4.279-1.461-4.041-2.528-4.199-3.853-.571m7.476-1.408c-.314.819-.425 2.765-.247 4.324.236 2.059.872 2.834 2.325 2.834 1.666 0 2-.667 2-3.986 0-3.004-.432-4.07-1.753-4.324-.964-.186-2.01.332-2.325 1.152m7.692 1.762c-1.548 4.44-1.524 4.488 2.299 4.596l3.412.097-1.244-3.592c-1.624-4.691-3.09-5.052-4.467-1.101m17.889-1.375c-.798 1.264-1.27 1.413-1.644.521-1.032-2.456-2.359-1.19-2.359 2.25 0 3.724 1.321 4.651 2.493 1.75.624-1.544.812-1.478 1.599.564 1.217 3.16 2.908 1.815 2.908-2.314 0-3.972-1.412-5.278-2.997-2.771m5.197-.529c-1.645 1.645-1.509 5.299.252 6.76 1.888 1.567 5.279.462 6.052-1.973 1.345-4.238-3.315-7.776-6.304-4.787m10.467-.533c-.367.366-.667 2.18-.667 4.031 0 3.629 1.789 5.043 4.75 3.754 1.667-.725 1.667-.781 0-1.18-1.695-.405-2.516-2.271-1-2.273.412 0 .815-1.125.894-2.5.102-1.757-.369-2.499-1.583-2.499-.95 0-2.028.3-2.394.667m10.045-.045c-.392.391-.712 2.394-.712 4.451 0 3.38.216 3.685 2.25 3.171 1.238-.313 2.581-1.058 2.985-1.656.501-.743.739-.692.75.162.008.688.679 1.25 1.49 1.25 1.122 0 1.33-.778.868-3.25-.833-4.456-2.256-5.799-3.026-2.856l-.617 2.36-1.638-2.172c-.901-1.195-1.959-1.852-2.35-1.46m9.955.045c-.367.366-.667 2.18-.667 4.031 0 3.609 2.268 5.434 4.267 3.435.844-.844.828-1.133-.061-1.133-.783 0-1.04-1.204-.746-3.5.426-3.328-.926-4.7-2.793-2.833m10.904.904c-.864.865-1.571 2.183-1.571 2.929 0 1.713 2.735 4.5 4.416 4.5 1.472 0 4.584-3.174 4.584-4.674 0-1.305-3.322-4.326-4.757-4.326-.605 0-1.807.707-2.672 1.571m12.632-.315c-.573.69-1.33 2.4-1.681 3.8-.592 2.357-.377 2.552 2.92 2.645 1.957.056 3.558-.024 3.558-.178 0-.713-3.069-7.523-3.391-7.523-.2 0-.833.565-1.406 1.256m12.047-.526c-.687.24-1.264 1.187-1.282 2.103-.029 1.516-.152 1.508-1.36-.083-2.134-2.811-3.608-2.052-3.608 1.857 0 2.76.345 3.475 1.468 3.044.807-.31 1.688-.207 1.958.229.269.435 1.521.719 2.782.629 1.68-.12 2.376-.87 2.606-2.811.378-3.189-.849-5.567-2.564-4.968m4.384.781c-.721 1.88.334 7.489 1.409 7.489 2.639 0 3.957-1.498 3.957-4.5 0-2.074-.583-3.51-1.582-3.893-2.407-.924-3.151-.746-3.784.904m10.795.917c-.87 3.467.376 6.572 2.638 6.572 2.16 0 2.614-1.557.683-2.341-.81-.328-.898-.798-.25-1.333.55-.454 1.107-1.838 1.238-3.076.344-3.247-3.489-3.089-4.309.178m7.267-1.079c-.303.79-.393 2.272-.2 3.293.193 1.022.392 2.308.443 2.858.05.55.543.325 1.095-.5.873-1.306 1.137-1.271 2.046.271.573.974 1.465 1.51 1.981 1.191 1.261-.779 1.206-7.462-.061-7.462-.55 0-1 .52-1 1.155 0 .68-.771.457-1.876-.543-1.575-1.425-1.965-1.468-2.428-.263m8.961 1.901c.596 3.189 1.944 5.54 2.685 4.683.206-.238.635-2.12.954-4.183.533-3.457.39-3.75-1.834-3.75-2.179 0-2.353.314-1.805 3.25m6.737-1.834c-.96 2.502.056 7.058 1.642 7.358 1.198.226 1.535-.707 1.535-4.242 0-3.082-.421-4.532-1.317-4.532-.724 0-1.561.637-1.86 1.416M24 230.878c0 6.385 6.193 6.535 6.821.164.411-4.16-2.032-3.713-2.953.54l-.631 2.918-.119-3.25c-.154-4.248-3.118-4.602-3.118-.372m108 .653c0 3.77 2.223 5.646 4.267 3.602.844-.844.699-1.133-.567-1.133-1.222 0-1.7-.843-1.7-3 0-1.65-.45-3-1-3s-1 1.589-1 3.531m53-.031c0 1.925.45 3.5 1 3.5s1-1.575 1-3.5-.45-3.5-1-3.5-1 1.575-1 3.5m40.651-2.744c-.721 1.166.471 6.244 1.466 6.244.485 0 .883-1.575.883-3.5 0-3.201-1.2-4.603-2.349-2.744M85.7 230.341c-.283.737-.125 1.971.351 2.741 1.167 1.888 3.457-.316 2.613-2.515-.737-1.92-2.27-2.037-2.964-.226m63.68.111c-.306.799-.266 1.924.09 2.5 1.165 1.885 2.53 1.101 2.53-1.452 0-2.711-1.718-3.398-2.62-1.048m42.02-.052c-.366.954-.171 2.229.434 2.834.8.8 1.282.627 1.766-.634.366-.954.171-2.229-.434-2.834-.8-.8-1.282-.627-1.766.634" fill="#fff" fill-rule="evenodd"/><path fill-opacity=".235" d="M125.079 24.75c-8.405 31.476-11.253 39.686-20.035 57.77-7.052 14.522-17.484 31.032-25.5 40.358-2.542 2.957-4.437 5.563-4.21 5.79.227.226 4.407-2.119 9.289-5.212 4.883-3.094 15.802-9.039 24.266-13.212 8.551-4.217 15.574-8.298 15.806-9.186.957-3.658 9.03-20.466 9.983-20.784 1.01-.337 6.322 14.127 6.322 17.213 0 .856 1.8 5.416 4 10.134s4 8.928 4 9.356c0 .428.672 1.336 1.494 2.018.821.682 2.879 3.662 4.573 6.622l3.08 5.383h13.426c7.385 0 13.427-.245 13.427-.545 0-.3-2.25-3.88-5-7.955s-5-7.87-5-8.432c0-.562-2.888-6.995-6.418-14.295-7.408-15.321-9.548-21.828-12.984-39.492C153.657 50.305 150 25.027 150 21.587c0-.323-5.382-.587-11.96-.587h-11.96l-1.001 3.75M21.815 148.25c-.862.688-3.939 6.875-6.837 13.75-2.898 6.875-6.046 14.075-6.996 16-.949 1.925-2.038 4.512-2.421 5.75-.651 2.106-.404 2.25 3.864 2.25 4.288 0 4.664-.223 6.322-3.75l1.763-3.75 8.204-.29 8.205-.29 2.061 4.04c1.886 3.698 2.398 4.04 6.04 4.04 2.788 0 3.98-.429 3.98-1.432 0-2.186-13.271-35.965-14.459-36.803-1.683-1.187-8.026-.871-9.726.485m41.602-.333c-.229.229-.417 8.905-.417 19.28v18.863l12.75-.28 12.75-.28v-6l-8.225-.29-8.225-.29-.275-15.7-.275-15.7-3.833-.01c-2.108-.005-4.021.178-4.25.407m45.811-.108-3.272.321.272 18.685.272 18.685 4.25.307 4.25.308v-14.83l6.129-.641c6.265-.655 12.197-3.446 13.272-6.246.953-2.484.695-9.35-.431-11.453-.566-1.059-2.253-2.546-3.75-3.307-2.719-1.381-14.818-2.436-20.992-1.829m45.189.108c-.229.229-.417 8.917-.417 19.307v18.891l4.25-.308 4.25-.307.293-7.788.293-7.789 8.707.289 8.707.288.5 7.5.5 7.5 4.25.307 4.25.308v-18.891c0-10.39-.202-19.092-.448-19.339-.246-.246-2.271-.274-4.5-.061l-4.052.386V163h-17.916l-.292-7.75-.292-7.75h-3.833c-2.108 0-4.02.188-4.25.417m65.911 4.833c-10.319 23.163-14.064 32.181-13.568 32.677.316.315 2.289.573 4.386.573 3.448 0 4.011-.387 5.874-4.04l2.061-4.04 8.205.29 8.204.29 1.763 3.75c1.652 3.515 2.044 3.75 6.255 3.75 2.471 0 4.492-.172 4.492-.383 0-1.672-14.411-37.258-15.323-37.838-.647-.412-3.114-.755-5.482-.764-4.281-.015-4.319.017-6.867 5.735m-104.93 2.655c-.296.772-.395 2.91-.218 4.75.271 2.831.753 3.395 3.135 3.668 5.813.666 9.736-4.629 6.114-8.252-1.971-1.97-8.294-2.087-9.031-.166m-92.148 8.474c-1.238 3.217-2.25 6.36-2.25 6.985 0 .713 2.088 1.136 5.607 1.136 4.072 0 5.477-.342 5.133-1.25-.261-.687-1.322-3.834-2.357-6.993-1.036-3.158-2.333-5.739-2.883-5.735-.55.004-2.012 2.64-3.25 5.857m203.393-5.11c-.766 1.239-4.642 11.66-4.642 12.481-.001.412 2.474.75 5.499.75 3.025 0 5.5-.338 5.5-.75s-1.008-3.562-2.241-7c-2.138-5.962-3.06-7.19-4.116-5.481M6.831 197.53c-2.96 1.607-5.26 7.11-4.209 10.067C4.124 211.823 7.201 214 11.674 214c2.882 0 4.326-.434 4.326-1.299 0-.889-1.075-1.174-3.402-.902-6.216.725-9.656-5.416-5.976-10.67 1.322-1.888 2.339-2.247 5.5-1.946 4.265.407 5.492-1.517 1.628-2.553-3.145-.843-3.889-.746-6.919.9m24.669-.375c-1.1.601-2.562 1.799-3.25 2.66-1.953 2.448-1.516 8.577.823 11.55 3.991 5.075 12.908 2.744 14.139-3.695.767-4.011-1.111-8.566-4.188-10.157-3.433-1.776-4.812-1.842-7.524-.358m51.46.676c-3.241 2.625-2.034 6.822 2.507 8.72 1.868.78 3.622 1.785 3.899 2.232 1.068 1.729-1.2 3.385-4.206 3.07-1.71-.18-3.234.118-3.385.66-.404 1.451 7.122 1.818 8.795.429 3.074-2.552 1.003-7.547-3.843-9.267-2.269-.806-3.382-3.652-1.808-4.625.666-.411 2.306-.538 3.646-.282 3.063.585 3.229-1.322.185-2.138-3.182-.852-3.279-.832-5.79 1.201m92.397-.861c-5.276 2.182-6.988 9.687-3.284 14.395 2.543 3.234 8.474 3.632 11.966.804 3.095-2.506 3.367-10.222.461-13.078-2.456-2.413-6.288-3.302-9.143-2.121M54 205.5c0 6.889.284 8.5 1.5 8.5 1.152 0 1.5-1.278 1.5-5.5 0-3.025.424-5.5.941-5.5.518 0 2.875 2.475 5.237 5.5 2.363 3.025 4.864 5.5 5.559 5.5.918 0 1.263-2.319 1.263-8.5 0-6.889-.284-8.5-1.5-8.5-1.133 0-1.5 1.222-1.5 5 0 2.75-.417 5-.927 5s-2.647-2.231-4.75-4.957c-2.103-2.727-4.611-4.977-5.573-5-1.533-.038-1.75 1.012-1.75 8.457m49-2.223c0 8.096 1.691 10.723 6.902 10.723 5.598 0 7.585-2.683 7.592-10.254.004-3.955-.428-6.205-1.244-6.485-.909-.311-1.25 1.213-1.25 5.584 0 6.317-1.51 9.155-4.871 9.155-3.074 0-4.129-2.224-4.129-8.7 0-4.933-.325-6.3-1.5-6.3-1.174 0-1.5 1.364-1.5 6.277m26 2.223v8.5h5c2.75 0 5-.45 5-1s-1.575-1-3.5-1H132v-7.5c0-6-.3-7.5-1.5-7.5-1.216 0-1.5 1.611-1.5 8.5m17.5-7.5c.34.55 1.716 1 3.059 1 2.371 0 2.441.215 2.441 7.5 0 6 .3 7.5 1.5 7.5s1.5-1.5 1.5-7.5c0-7.285.07-7.5 2.441-7.5 1.343 0 2.719-.45 3.059-1 .391-.633-2.176-1-7-1s-7.391.367-7 1m51.5 7.5c0 8.199 1.545 11.907 2.187 5.25.239-2.479.788-3.25 2.313-3.25 1.296 0 2.503 1.143 3.43 3.25 1.657 3.764 4.621 4.607 3.515 1-.379-1.238-1.122-2.791-1.65-3.452-.623-.78-.518-2.423.3-4.684 1.722-4.762.121-6.614-5.717-6.614H198v8.5m23 0c0 6.489.314 8.562 1.25 8.25.858-.286 1.25-2.872 1.25-8.25s-.392-7.964-1.25-8.25c-.936-.312-1.25 1.761-1.25 8.25m17.973-5.819c-.566 1.55-1.976 5.198-3.132 8.105-2.106 5.294-1.774 8.21.57 5.005 1.749-2.392 8.432-2.726 10.058-.503.688.942 1.764 1.712 2.391 1.712 1.404 0 1.6.944-1.762-8.5-2.228-6.257-3.311-8.07-4.972-8.319-1.563-.236-2.394.423-3.153 2.5m-207.482.702c-1.27.929-1.891 2.608-1.891 5.117 0 5.658 5.196 8.561 8.827 4.93 5.771-5.771-.454-14.787-6.936-10.047m143.164.446c-.91 1.006-1.655 3.186-1.655 4.845 0 5.689 6.388 8.465 9.443 4.103 4.437-6.334-2.716-14.552-7.788-8.948m26.054-1.205c-.39.39-.709 1.564-.709 2.609 0 1.483.604 1.83 2.75 1.583 1.978-.227 2.75-.878 2.75-2.316 0-2.009-3.347-3.319-4.791-1.876m39.316 4.316c-1.395 3.367-.734 5.06 1.975 5.06 2.647 0 3.145-1.287 1.89-4.885-1.355-3.887-2.31-3.93-3.865-.175M41.607 229.582c-.959 2.499-.69 4.092.408 2.418.876-1.333 1.094-1.333 1.97 0 .567.865.991 1.005 1 .332.024-1.836-1.12-4.332-1.985-4.332-.432 0-1.059.712-1.393 1.582m6.912-.612c-.389.629-.382 2.356.017 3.837l.723 2.693.845-2.976c.862-3.039-.297-5.638-1.585-3.554m27.09-.146c-.353.571-.154 1.339.441 1.707 1.486.918 2.012.188 1.021-1.417-.532-.859-1.047-.962-1.462-.29M96 231.167c0 3.641.437 3.509 1.378-.417.392-1.633.246-2.75-.359-2.75-.56 0-1.019 1.425-1.019 3.167M126.5 229c-.34.55-.141 1 .441 1s1.059-.45 1.059-1-.198-1-.441-1-.719.45-1.059 1m17.006.98c-.345 1.089-.164 2.776.403 3.75.841 1.444 1.036 1.08 1.061-1.98.033-4.145-.504-4.794-1.464-1.77m25.573-.397c.048 1.165.285 1.402.604.605.289-.722.253-1.585-.079-1.917-.332-.332-.568.258-.525 1.312m4.377-.512c-.375.607-.241 1.544.298 2.083.64.64 1.185.448 1.57-.555.699-1.823-.885-3.119-1.868-1.528m29.273-.467c-.401.401-.715 1.667-.699 2.813.028 1.923.111 1.946 1.071.295 1.119-1.922.833-4.312-.372-3.108m11.341 1.146c.039.963.457 2.65.93 3.75.689 1.604.873 1.258.93-1.75.038-2.062-.38-3.75-.93-3.75s-.968.787-.93 1.75m22.93-.309c0 .857.45 1.559 1 1.559s1-.423 1-.941-.45-1.219-1-1.559c-.55-.34-1 .084-1 .941m10-.382c0 .582.45.781 1 .441s1-.816 1-1.059-.45-.441-1-.441-1 .477-1 1.059m6.252 2.441c.011 2.2.216 2.982.455 1.738.239-1.244.23-3.044-.02-4s-.446.062-.435 2.262m-243.173-.917c.048 1.165.285 1.402.604.605.289-.722.253-1.585-.079-1.917-.332-.332-.568.258-.525 1.312M24 230.441c0 .793.45 1.719 1 2.059.55.34 1-.309 1-1.441 0-1.132-.45-2.059-1-2.059s-1 .648-1 1.441m9.015.931c-.012 2.353.239 2.662 1.388 1.709 1.077-.894 1.523-.865 1.921.127.285.711.547-.058.582-1.708.049-2.306-.164-2.653-.921-1.5-.876 1.333-1.094 1.333-1.97 0-.766-1.168-.988-.864-1 1.372m46.634-.139c-.321 1.228-.148 2.668.384 3.2.623.623.967-.172.967-2.233 0-3.74-.527-4.117-1.351-.967M89 231c0 1.867.267 2.133 1.2 1.2.933-.933.933-1.467 0-2.4-.933-.933-1.2-.667-1.2 1.2m50 .059c0 1.132.43 1.793.956 1.468.526-.325.703-1.252.393-2.059-.793-2.067-1.349-1.824-1.349.591m20 .774c0 1.742.388 3.167.862 3.167.475 0 .735-1.165.579-2.588-.42-3.828-1.441-4.238-1.441-.579m35-.333c0 1.491.431 2.352 1 2 .55-.34 1-1.24 1-2s-.45-1.66-1-2c-.569-.352-1 .509-1 2m15-1.5c0 .55.45 1 1 1s1-.45 1-1-.45-1-1-1-1 .45-1 1m10.015.25c-.01 1.176.723 1.724 2.235 1.671 1.503-.053 1.752-.268.75-.65-.825-.314-1.831-1.066-2.235-1.671-.453-.678-.74-.429-.75.65M57.158 232c0 1.375.227 1.938.504 1.25.278-.687.278-1.812 0-2.5-.277-.687-.504-.125-.504 1.25M68 231.882c0 .55.45 1.278 1 1.618.55.34 1 .168 1-.382s-.45-1.278-1-1.618c-.55-.34-1-.168-1 .382m34 .118c0 .55.423 1 .941 1s1.219-.45 1.559-1c.34-.55-.084-1-.941-1s-1.559.45-1.559 1m7.667-.333c-.367.366-.667 1.131-.667 1.7 0 .626.466.567 1.183-.15.651-.651.951-1.416.667-1.7-.284-.285-.817-.217-1.183.15m3.412.916c.048 1.165.285 1.402.604.605.289-.722.253-1.585-.079-1.917-.332-.332-.568.258-.525 1.312m5.921-.915c.825.347 1.872 1.127 2.326 1.732.531.707.68.565.417-.4-.225-.825-1.271-1.605-2.326-1.732-1.347-.164-1.471-.045-.417.4m-67 1.273c0 .518.45 1.219 1 1.559.55.34 1-.084 1-.941S53.55 232 53 232s-1 .423-1 .941M171 233c0 .55.477 1 1.059 1s.781-.45.441-1-.816-1-1.059-1-.441.45-.441 1m33 0c0 .55.477 1 1.059 1s.781-.45.441-1-.816-1-1.059-1-.441.45-.441 1m37.079.583c.048 1.165.285 1.402.604.605.289-.722.253-1.585-.079-1.917-.332-.332-.568.258-.525 1.312M211.5 234c.34.55.816 1 1.059 1s.441-.45.441-1-.477-1-1.059-1-.781.45-.441 1" fill="#fff" fill-rule="evenodd"/><path fill-opacity=".25" d="M122.635 36.726c-8.661 32.568-23.819 63.857-41.046 84.728-2.249 2.725-3.639 4.697-3.089 4.384.55-.314 5.725-3.417 11.5-6.895 5.775-3.479 15.608-8.683 21.85-11.566l11.35-5.24 4.91-10.778c2.7-5.928 5.3-11.169 5.778-11.647.492-.492.249-2.896-.561-5.541-3.03-9.899-7.031-33.027-7.603-43.945-.201-3.835-.519-3.166-3.089 6.5M21.569 148.888C20.879 150.005 6 184.185 6 184.654c0 .19 1.794.346 3.987.346 3.61 0 4.124-.33 5.449-3.5l1.462-3.5H34.973l1.463 3.5c1.328 3.18 1.831 3.5 5.498 3.5h4.037l-1.84-4.75c-1.012-2.613-4.241-10.937-7.176-18.5L31.619 148h-4.751c-2.612 0-4.997.399-5.299.888M63 166.5V185h25v-2.46c0-2.39-.232-2.467-8.25-2.75l-8.25-.29-.275-15.75-.276-15.75H63v18.5m44-.131V185h8v-15l4.25-.077c7.516-.136 12.033-2.075 14.202-6.095 1.591-2.951 1.776-4.313 1-7.378-1.568-6.189-4.664-7.699-16.908-8.243L107 147.738v18.631m47 .131V185h8v-7.393c0-5.819.337-7.522 1.582-8 2.883-1.106 15.969-.656 17.218.593.698.698 1.2 4.044 1.2 8v6.8h8v-37h-8l-.015 6.75c-.009 3.713-.384 7.331-.835 8.041-.593.936-3.277 1.211-9.735 1l-8.915-.291-.292-7.75-.292-7.75H154v18.5m67.355-14.803c-.872 2.092-4.271 9.878-7.552 17.303-3.281 7.425-6.202 14.063-6.491 14.75-.371.882.679 1.25 3.568 1.25 3.733 0 4.222-.308 5.556-3.5l1.462-3.5h18.7l1.266 3.5c1.154 3.193 1.611 3.5 5.201 3.5 2.164 0 3.935-.216 3.935-.48s-1.758-4.876-3.908-10.25c-2.149-5.373-5.26-13.37-6.913-17.77l-3.006-8-5.115-.303c-5.075-.301-5.128-.274-6.703 3.5m-105.105 1.965c-.757.306-1.25 2.402-1.25 5.313 0 4.258.278 4.878 2.431 5.418 5.397 1.355 10.754-3.31 8.543-7.441-1.6-2.99-6.424-4.621-9.724-3.29m-93.592 10.113c-1.462 3.726-2.658 7.326-2.658 8 0 .831 1.931 1.225 6 1.225 5.044 0 6.002-.279 6.01-1.75.018-3.056-4.332-14.25-5.537-14.25-.636 0-2.353 3.049-3.815 6.775m201.056.475c-1.512 3.988-2.741 7.588-2.731 8 .025 1.084 11.791.925 12.467-.169.833-1.348-4.48-15.081-5.835-15.081-.634 0-2.39 3.262-3.901 7.25M144.158 231c0 1.375.227 1.938.504 1.25.278-.687.278-1.812 0-2.5-.277-.687-.504-.125-.504 1.25" fill="#fff" fill-rule="evenodd"/></svg>